<mxfile host="65bd71144e">
    <diagram id="R2lEEEUBdFMjLlhIrx00" name="Page-1">
        <mxGraphModel dx="1844" dy="797" grid="1" gridSize="10" guides="1" tooltips="1" connect="1" arrows="1" fold="1" page="1" pageScale="1" pageWidth="850" pageHeight="1100" math="0" shadow="0" extFonts="Permanent Marker^https://fonts.googleapis.com/css?family=Permanent+Marker">
            <root>
                <mxCell id="0"/>
                <mxCell id="1" parent="0"/>
                <mxCell id="6wVJDeJCRHnL9Iy6oji6-1" value="Entreprise" style="swimlane;fontStyle=0;childLayout=stackLayout;horizontal=1;startSize=26;horizontalStack=0;resizeParent=1;resizeParentMax=0;resizeLast=0;collapsible=1;marginBottom=0;align=center;fontSize=14;" parent="1" vertex="1">
                    <mxGeometry x="90" y="140" width="160" height="176" as="geometry"/>
                </mxCell>
                <mxCell id="6wVJDeJCRHnL9Iy6oji6-2" value="&lt;u&gt;Id entreprise&lt;/u&gt;" style="text;strokeColor=none;fillColor=none;spacingLeft=4;spacingRight=4;overflow=hidden;rotatable=0;points=[[0,0.5],[1,0.5]];portConstraint=eastwest;fontSize=12;whiteSpace=wrap;html=1;" parent="6wVJDeJCRHnL9Iy6oji6-1" vertex="1">
                    <mxGeometry y="26" width="160" height="30" as="geometry"/>
                </mxCell>
                <mxCell id="6wVJDeJCRHnL9Iy6oji6-3" value="nom d'entreprise" style="text;strokeColor=none;fillColor=none;spacingLeft=4;spacingRight=4;overflow=hidden;rotatable=0;points=[[0,0.5],[1,0.5]];portConstraint=eastwest;fontSize=12;whiteSpace=wrap;html=1;" parent="6wVJDeJCRHnL9Iy6oji6-1" vertex="1">
                    <mxGeometry y="56" width="160" height="30" as="geometry"/>
                </mxCell>
                <mxCell id="6wVJDeJCRHnL9Iy6oji6-5" value="secteur d'activite" style="text;strokeColor=none;fillColor=none;spacingLeft=4;spacingRight=4;overflow=hidden;rotatable=0;points=[[0,0.5],[1,0.5]];portConstraint=eastwest;fontSize=12;whiteSpace=wrap;html=1;" parent="6wVJDeJCRHnL9Iy6oji6-1" vertex="1">
                    <mxGeometry y="86" width="160" height="30" as="geometry"/>
                </mxCell>
                <mxCell id="6wVJDeJCRHnL9Iy6oji6-4" value="liste du produit" style="text;strokeColor=none;fillColor=none;spacingLeft=4;spacingRight=4;overflow=hidden;rotatable=0;points=[[0,0.5],[1,0.5]];portConstraint=eastwest;fontSize=12;whiteSpace=wrap;html=1;" parent="6wVJDeJCRHnL9Iy6oji6-1" vertex="1">
                    <mxGeometry y="116" width="160" height="30" as="geometry"/>
                </mxCell>
                <mxCell id="6wVJDeJCRHnL9Iy6oji6-11" value="chiffre d'affaire" style="text;strokeColor=none;fillColor=none;spacingLeft=4;spacingRight=4;overflow=hidden;rotatable=0;points=[[0,0.5],[1,0.5]];portConstraint=eastwest;fontSize=12;whiteSpace=wrap;html=1;" parent="6wVJDeJCRHnL9Iy6oji6-1" vertex="1">
                    <mxGeometry y="146" width="160" height="30" as="geometry"/>
                </mxCell>
                <mxCell id="6wVJDeJCRHnL9Iy6oji6-6" value="Produit" style="swimlane;fontStyle=0;childLayout=stackLayout;horizontal=1;startSize=26;horizontalStack=0;resizeParent=1;resizeParentMax=0;resizeLast=0;collapsible=1;marginBottom=0;align=center;fontSize=14;" parent="1" vertex="1">
                    <mxGeometry x="630" y="140" width="160" height="176" as="geometry"/>
                </mxCell>
                <mxCell id="6wVJDeJCRHnL9Iy6oji6-35" value="&lt;u&gt;Id produit&lt;/u&gt;" style="text;strokeColor=none;fillColor=none;spacingLeft=4;spacingRight=4;overflow=hidden;rotatable=0;points=[[0,0.5],[1,0.5]];portConstraint=eastwest;fontSize=12;whiteSpace=wrap;html=1;" parent="6wVJDeJCRHnL9Iy6oji6-6" vertex="1">
                    <mxGeometry y="26" width="160" height="30" as="geometry"/>
                </mxCell>
                <mxCell id="6wVJDeJCRHnL9Iy6oji6-8" value="nom du produit" style="text;strokeColor=none;fillColor=none;spacingLeft=4;spacingRight=4;overflow=hidden;rotatable=0;points=[[0,0.5],[1,0.5]];portConstraint=eastwest;fontSize=12;whiteSpace=wrap;html=1;" parent="6wVJDeJCRHnL9Iy6oji6-6" vertex="1">
                    <mxGeometry y="56" width="160" height="30" as="geometry"/>
                </mxCell>
                <mxCell id="6wVJDeJCRHnL9Iy6oji6-9" value="catégorie" style="text;strokeColor=none;fillColor=none;spacingLeft=4;spacingRight=4;overflow=hidden;rotatable=0;points=[[0,0.5],[1,0.5]];portConstraint=eastwest;fontSize=12;whiteSpace=wrap;html=1;" parent="6wVJDeJCRHnL9Iy6oji6-6" vertex="1">
                    <mxGeometry y="86" width="160" height="30" as="geometry"/>
                </mxCell>
                <mxCell id="6wVJDeJCRHnL9Iy6oji6-12" value="quantite" style="text;strokeColor=none;fillColor=none;spacingLeft=4;spacingRight=4;overflow=hidden;rotatable=0;points=[[0,0.5],[1,0.5]];portConstraint=eastwest;fontSize=12;whiteSpace=wrap;html=1;" parent="6wVJDeJCRHnL9Iy6oji6-6" vertex="1">
                    <mxGeometry y="116" width="160" height="30" as="geometry"/>
                </mxCell>
                <mxCell id="6wVJDeJCRHnL9Iy6oji6-10" value="prix" style="text;strokeColor=none;fillColor=none;spacingLeft=4;spacingRight=4;overflow=hidden;rotatable=0;points=[[0,0.5],[1,0.5]];portConstraint=eastwest;fontSize=12;whiteSpace=wrap;html=1;" parent="6wVJDeJCRHnL9Iy6oji6-6" vertex="1">
                    <mxGeometry y="146" width="160" height="30" as="geometry"/>
                </mxCell>
                <mxCell id="6wVJDeJCRHnL9Iy6oji6-13" value=" fabriqué" style="swimlane;fontStyle=0;childLayout=stackLayout;horizontal=1;startSize=26;horizontalStack=0;resizeParent=1;resizeParentMax=0;resizeLast=0;collapsible=1;marginBottom=0;align=center;fontSize=14;rounded=1;arcSize=50;" parent="1" vertex="1">
                    <mxGeometry x="360" y="190" width="160" height="56" as="geometry"/>
                </mxCell>
                <mxCell id="6wVJDeJCRHnL9Iy6oji6-18" style="edgeStyle=orthogonalEdgeStyle;rounded=0;orthogonalLoop=1;jettySize=auto;html=1;exitX=0;exitY=0.5;exitDx=0;exitDy=0;entryX=1.013;entryY=0.767;entryDx=0;entryDy=0;entryPerimeter=0;" parent="1" source="6wVJDeJCRHnL9Iy6oji6-13" target="6wVJDeJCRHnL9Iy6oji6-3" edge="1">
                    <mxGeometry relative="1" as="geometry"/>
                </mxCell>
                <mxCell id="6wVJDeJCRHnL9Iy6oji6-20" value="(1,n)" style="edgeLabel;html=1;align=center;verticalAlign=middle;resizable=0;points=[];" parent="6wVJDeJCRHnL9Iy6oji6-18" vertex="1" connectable="0">
                    <mxGeometry x="0.065" y="-1" relative="1" as="geometry">
                        <mxPoint as="offset"/>
                    </mxGeometry>
                </mxCell>
                <mxCell id="6wVJDeJCRHnL9Iy6oji6-19" style="edgeStyle=orthogonalEdgeStyle;rounded=0;orthogonalLoop=1;jettySize=auto;html=1;exitX=1;exitY=0.5;exitDx=0;exitDy=0;entryX=-0.006;entryY=0.733;entryDx=0;entryDy=0;entryPerimeter=0;" parent="1" source="6wVJDeJCRHnL9Iy6oji6-13" target="6wVJDeJCRHnL9Iy6oji6-8" edge="1">
                    <mxGeometry relative="1" as="geometry"/>
                </mxCell>
                <mxCell id="6wVJDeJCRHnL9Iy6oji6-21" value="(1,n)" style="edgeLabel;html=1;align=center;verticalAlign=middle;resizable=0;points=[];" parent="6wVJDeJCRHnL9Iy6oji6-19" vertex="1" connectable="0">
                    <mxGeometry x="0.1005" y="2" relative="1" as="geometry">
                        <mxPoint as="offset"/>
                    </mxGeometry>
                </mxCell>
                <mxCell id="6wVJDeJCRHnL9Iy6oji6-23" value="Clients" style="swimlane;fontStyle=0;childLayout=stackLayout;horizontal=1;startSize=26;horizontalStack=0;resizeParent=1;resizeParentMax=0;resizeLast=0;collapsible=1;marginBottom=0;align=center;fontSize=14;" parent="1" vertex="1">
                    <mxGeometry x="100" y="590" width="160" height="146" as="geometry"/>
                </mxCell>
                <mxCell id="6wVJDeJCRHnL9Iy6oji6-24" value="&lt;u&gt;Id client&lt;/u&gt;" style="text;strokeColor=none;fillColor=none;spacingLeft=4;spacingRight=4;overflow=hidden;rotatable=0;points=[[0,0.5],[1,0.5]];portConstraint=eastwest;fontSize=12;whiteSpace=wrap;html=1;" parent="6wVJDeJCRHnL9Iy6oji6-23" vertex="1">
                    <mxGeometry y="26" width="160" height="30" as="geometry"/>
                </mxCell>
                <mxCell id="6wVJDeJCRHnL9Iy6oji6-25" value="nom/prenom" style="text;strokeColor=none;fillColor=none;spacingLeft=4;spacingRight=4;overflow=hidden;rotatable=0;points=[[0,0.5],[1,0.5]];portConstraint=eastwest;fontSize=12;whiteSpace=wrap;html=1;" parent="6wVJDeJCRHnL9Iy6oji6-23" vertex="1">
                    <mxGeometry y="56" width="160" height="30" as="geometry"/>
                </mxCell>
                <mxCell id="6wVJDeJCRHnL9Iy6oji6-27" value="adresse du mail/ telephone" style="text;strokeColor=none;fillColor=none;spacingLeft=4;spacingRight=4;overflow=hidden;rotatable=0;points=[[0,0.5],[1,0.5]];portConstraint=eastwest;fontSize=12;whiteSpace=wrap;html=1;" parent="6wVJDeJCRHnL9Iy6oji6-23" vertex="1">
                    <mxGeometry y="86" width="160" height="30" as="geometry"/>
                </mxCell>
                <mxCell id="6wVJDeJCRHnL9Iy6oji6-28" value="paiement" style="text;strokeColor=none;fillColor=none;spacingLeft=4;spacingRight=4;overflow=hidden;rotatable=0;points=[[0,0.5],[1,0.5]];portConstraint=eastwest;fontSize=12;whiteSpace=wrap;html=1;" parent="6wVJDeJCRHnL9Iy6oji6-23" vertex="1">
                    <mxGeometry y="116" width="160" height="30" as="geometry"/>
                </mxCell>
                <mxCell id="6wVJDeJCRHnL9Iy6oji6-39" style="edgeStyle=orthogonalEdgeStyle;rounded=0;orthogonalLoop=1;jettySize=auto;html=1;exitX=0;exitY=0.5;exitDx=0;exitDy=0;entryX=1;entryY=0.5;entryDx=0;entryDy=0;" parent="1" source="6wVJDeJCRHnL9Iy6oji6-37" target="6wVJDeJCRHnL9Iy6oji6-25" edge="1">
                    <mxGeometry relative="1" as="geometry"/>
                </mxCell>
                <mxCell id="6wVJDeJCRHnL9Iy6oji6-43" value="(1,1)" style="edgeLabel;html=1;align=center;verticalAlign=middle;resizable=0;points=[];" parent="6wVJDeJCRHnL9Iy6oji6-39" vertex="1" connectable="0">
                    <mxGeometry x="-0.0982" relative="1" as="geometry">
                        <mxPoint as="offset"/>
                    </mxGeometry>
                </mxCell>
                <mxCell id="6wVJDeJCRHnL9Iy6oji6-40" style="edgeStyle=orthogonalEdgeStyle;rounded=0;orthogonalLoop=1;jettySize=auto;html=1;exitX=1;exitY=0.5;exitDx=0;exitDy=0;entryX=-0.005;entryY=1.05;entryDx=0;entryDy=0;entryPerimeter=0;" parent="1" source="6wVJDeJCRHnL9Iy6oji6-37" target="6wVJDeJCRHnL9Iy6oji6-10" edge="1">
                    <mxGeometry relative="1" as="geometry"/>
                </mxCell>
                <mxCell id="6wVJDeJCRHnL9Iy6oji6-51" value="(1,n)" style="edgeLabel;html=1;align=center;verticalAlign=middle;resizable=0;points=[];" parent="6wVJDeJCRHnL9Iy6oji6-40" vertex="1" connectable="0">
                    <mxGeometry x="-0.2391" relative="1" as="geometry">
                        <mxPoint as="offset"/>
                    </mxGeometry>
                </mxCell>
                <mxCell id="6wVJDeJCRHnL9Iy6oji6-37" value="livre/commande" style="swimlane;fontStyle=0;childLayout=stackLayout;horizontal=1;startSize=26;horizontalStack=0;resizeParent=1;resizeParentMax=0;resizeLast=0;collapsible=1;marginBottom=0;align=center;fontSize=14;rounded=1;arcSize=50;" parent="1" vertex="1">
                    <mxGeometry x="370" y="635" width="160" height="56" as="geometry"/>
                </mxCell>
                <mxCell id="6wVJDeJCRHnL9Iy6oji6-46" value="faire un avis" style="swimlane;fontStyle=0;childLayout=stackLayout;horizontal=1;startSize=26;horizontalStack=0;resizeParent=1;resizeParentMax=0;resizeLast=0;collapsible=1;marginBottom=0;align=center;fontSize=14;rounded=1;arcSize=50;" parent="1" vertex="1">
                    <mxGeometry x="320" y="400" width="160" height="56" as="geometry"/>
                </mxCell>
                <mxCell id="5" value="avis etoile" style="text;strokeColor=none;fillColor=none;spacingLeft=4;spacingRight=4;overflow=hidden;rotatable=0;points=[[0,0.5],[1,0.5]];portConstraint=eastwest;fontSize=12;whiteSpace=wrap;html=1;" vertex="1" parent="6wVJDeJCRHnL9Iy6oji6-46">
                    <mxGeometry y="26" width="160" height="30" as="geometry"/>
                </mxCell>
                <mxCell id="6wVJDeJCRHnL9Iy6oji6-47" style="edgeStyle=orthogonalEdgeStyle;rounded=0;orthogonalLoop=1;jettySize=auto;html=1;exitX=0.5;exitY=0;exitDx=0;exitDy=0;entryX=0;entryY=0.5;entryDx=0;entryDy=0;" parent="1" source="6wVJDeJCRHnL9Iy6oji6-46" target="6wVJDeJCRHnL9Iy6oji6-10" edge="1">
                    <mxGeometry relative="1" as="geometry">
                        <mxPoint x="400" y="330" as="targetPoint"/>
                        <Array as="points">
                            <mxPoint x="510" y="400"/>
                            <mxPoint x="510" y="331"/>
                        </Array>
                    </mxGeometry>
                </mxCell>
                <mxCell id="6wVJDeJCRHnL9Iy6oji6-50" value="(0,n)" style="edgeLabel;html=1;align=center;verticalAlign=middle;resizable=0;points=[];" parent="6wVJDeJCRHnL9Iy6oji6-47" vertex="1" connectable="0">
                    <mxGeometry x="0.0796" y="1" relative="1" as="geometry">
                        <mxPoint as="offset"/>
                    </mxGeometry>
                </mxCell>
                <mxCell id="6wVJDeJCRHnL9Iy6oji6-48" style="edgeStyle=orthogonalEdgeStyle;rounded=0;orthogonalLoop=1;jettySize=auto;html=1;exitX=0.5;exitY=1;exitDx=0;exitDy=0;entryX=0.365;entryY=-0.009;entryDx=0;entryDy=0;entryPerimeter=0;" parent="1" source="6wVJDeJCRHnL9Iy6oji6-46" target="6wVJDeJCRHnL9Iy6oji6-23" edge="1">
                    <mxGeometry relative="1" as="geometry"/>
                </mxCell>
                <mxCell id="6wVJDeJCRHnL9Iy6oji6-49" value="(0,1)" style="edgeLabel;html=1;align=center;verticalAlign=middle;resizable=0;points=[];" parent="6wVJDeJCRHnL9Iy6oji6-48" vertex="1" connectable="0">
                    <mxGeometry x="-0.1988" y="-1" relative="1" as="geometry">
                        <mxPoint as="offset"/>
                    </mxGeometry>
                </mxCell>
                <mxCell id="2" value="Entreprise &lt;u&gt;(id Entreprise&lt;/u&gt;, nom, secteur activite, liste des produits, chiffre d'affaire)" style="text;html=1;align=center;verticalAlign=middle;resizable=0;points=[];autosize=1;strokeColor=none;fillColor=none;" vertex="1" parent="1">
                    <mxGeometry y="100" width="450" height="30" as="geometry"/>
                </mxCell>
                <mxCell id="3" value="Produit( &lt;u&gt;Id produit,&lt;/u&gt; nom, categorie, quantite, prix,)" style="text;html=1;align=center;verticalAlign=middle;resizable=0;points=[];autosize=1;strokeColor=none;fillColor=none;" vertex="1" parent="1">
                    <mxGeometry x="535" y="95" width="290" height="30" as="geometry"/>
                </mxCell>
                <mxCell id="4" value="Clients(&lt;u&gt;id client&lt;/u&gt;, nom, prenom,adresseMail, adresse, paiement)" style="text;html=1;align=center;verticalAlign=middle;resizable=0;points=[];autosize=1;strokeColor=none;fillColor=none;" vertex="1" parent="1">
                    <mxGeometry x="-25" y="560" width="360" height="30" as="geometry"/>
                </mxCell>
                <mxCell id="7" value="Avis(avisEtoile, &lt;u&gt;#id client, #id produit&lt;/u&gt;)" style="text;html=1;align=center;verticalAlign=middle;resizable=0;points=[];autosize=1;strokeColor=none;fillColor=none;" vertex="1" parent="1">
                    <mxGeometry x="270" y="355" width="220" height="30" as="geometry"/>
                </mxCell>
            </root>
        </mxGraphModel>
    </diagram>
</mxfile>